<?xml version="1.0" encoding="UTF-8" standalone="no"?>
<!-- Created with Inkscape (http://www.inkscape.org/) -->

<svg
   xmlns:dc="http://purl.org/dc/elements/1.1/"
   xmlns:cc="http://creativecommons.org/ns#"
   xmlns:rdf="http://www.w3.org/1999/02/22-rdf-syntax-ns#"
   xmlns:svg="http://www.w3.org/2000/svg"
   xmlns="http://www.w3.org/2000/svg"
   xmlns:sodipodi="http://sodipodi.sourceforge.net/DTD/sodipodi-0.dtd"
   xmlns:inkscape="http://www.inkscape.org/namespaces/inkscape"
   width="360"
   height="120"
   id="svg2"
   version="1.1"
   inkscape:version="0.48.4 r9939"
   sodipodi:docname="nowork_circles.svg"
   inkscape:export-filename="/home/alex/Desktop/sync/code+data/drosophila neurons/dispatchrecap/antoinestim/new/hbar20.png"
   inkscape:export-xdpi="84"
   inkscape:export-ydpi="84">
  <defs
     id="defs4">
    <filter
       id="filter4830"
       inkscape:label="Invert"
       x="0"
       y="0"
       width="1"
       height="1"
       inkscape:menu="Color"
       inkscape:menu-tooltip="Invert colors"
       color-interpolation-filters="sRGB">
      <feColorMatrix
         id="feColorMatrix4832"
         type="saturate"
         values="1"
         result="fbSourceGraphic" />
      <feColorMatrix
         id="feColorMatrix4834"
         in="fbSourceGraphic"
         values="-1 0 0 0 1 0 -1 0 0 1 0 0 -1 0 1 0 0 0 1 0 " />
    </filter>
  </defs>
  <sodipodi:namedview
     id="base"
     pagecolor="#ffffff"
     bordercolor="#666666"
     borderopacity="1.0"
     inkscape:pageopacity="1"
     inkscape:pageshadow="2"
     inkscape:zoom="2.8284271"
     inkscape:cx="95.17076"
     inkscape:cy="61.345437"
     inkscape:document-units="px"
     inkscape:current-layer="layer1"
     showgrid="true"
     inkscape:window-width="1366"
     inkscape:window-height="719"
     inkscape:window-x="0"
     inkscape:window-y="25"
     inkscape:window-maximized="1">
    <inkscape:grid
       type="xygrid"
       id="grid3136"
       empspacing="5"
       visible="true"
       enabled="true"
       snapvisiblegridlinesonly="true" />
  </sodipodi:namedview>
  <metadata
     id="metadata7">
    <rdf:RDF>
      <cc:Work
         rdf:about="">
        <dc:format>image/svg+xml</dc:format>
        <dc:type
           rdf:resource="http://purl.org/dc/dcmitype/StillImage" />
        <dc:title />
      </cc:Work>
    </rdf:RDF>
  </metadata>
  <g
     inkscape:label="Layer 1"
     inkscape:groupmode="layer"
     id="layer1"
     transform="translate(0,-932.36218)">
    <g
       id="g4840"
       transform="translate(143.625,-28.749998)">
      <rect
         y="1011.1122"
         x="206.375"
         height="20"
         width="20"
         id="rect4838"
         style="fill:#000000;fill-opacity:1;stroke:none" />
      <path
         sodipodi:type="arc"
         style="fill:none;stroke:#ffffff;stroke-width:9.95859241;stroke-miterlimit:4;stroke-opacity:1;stroke-dasharray:none"
         id="path4836"
         sodipodi:cx="152.5"
         sodipodi:cy="95"
         sodipodi:rx="12.5"
         sodipodi:ry="15"
         d="m 165,95 c 0,8.28427 -5.59644,15 -12.5,15 -6.90356,0 -12.5,-6.71573 -12.5,-15 0,-8.284271 5.59644,-15 12.5,-15 6.90356,0 12.5,6.715729 12.5,15 z"
         transform="matrix(0.58666666,0,0,0.48888888,126.90833,974.66773)" />
    </g>
    <path
       sodipodi:type="arc"
       style="fill:none;stroke:#000000;stroke-width:9.95859241;stroke-miterlimit:4;stroke-opacity:1;stroke-dasharray:none"
       id="path4791"
       sodipodi:cx="152.5"
       sodipodi:cy="95"
       sodipodi:rx="12.5"
       sodipodi:ry="15"
       d="m 165,95 a 12.5,15 0 1 1 -25,0 12.5,15 0 1 1 25,0 z"
       transform="matrix(0.58666666,0,0,0.48888888,0.53333317,945.91774)" />
    <path
       sodipodi:type="arc"
       style="fill:none;stroke:#000000;stroke-width:9.95859241;stroke-miterlimit:4;stroke-opacity:1;stroke-dasharray:none"
       id="path4852"
       sodipodi:cx="152.5"
       sodipodi:cy="95"
       sodipodi:rx="12.5"
       sodipodi:ry="15"
       d="m 165,95 a 12.5,15 0 1 1 -25,0 12.5,15 0 1 1 25,0 z"
       transform="matrix(0.58666666,0,0,0.48888888,180.53333,945.91774)" />
    <g
       id="g4844"
       transform="translate(-36.374998,-28.749998)">
      <rect
         style="fill:#000000;fill-opacity:1;stroke:none"
         id="rect4846"
         width="20"
         height="20"
         x="206.375"
         y="1011.1122" />
      <path
         transform="matrix(0.58666666,0,0,0.48888888,126.90833,974.66773)"
         d="m 165,95 c 0,8.28427 -5.59644,15 -12.5,15 -6.90356,0 -12.5,-6.71573 -12.5,-15 0,-8.284271 5.59644,-15 12.5,-15 6.90356,0 12.5,6.715729 12.5,15 z"
         sodipodi:ry="15"
         sodipodi:rx="12.5"
         sodipodi:cy="95"
         sodipodi:cx="152.5"
         id="path4848"
         style="fill:none;stroke:#ffffff;stroke-width:9.95859241;stroke-miterlimit:4;stroke-opacity:1;stroke-dasharray:none"
         sodipodi:type="arc" />
    </g>
    <g
       transform="translate(-216.375,-28.749998)"
       id="g2995">
      <rect
         y="1011.1122"
         x="206.375"
         height="20"
         width="20"
         id="rect2997"
         style="fill:#000000;fill-opacity:1;stroke:none" />
      <path
         sodipodi:type="arc"
         style="fill:none;stroke:#ffffff;stroke-width:9.95859241;stroke-miterlimit:4;stroke-opacity:1;stroke-dasharray:none"
         id="path2999"
         sodipodi:cx="152.5"
         sodipodi:cy="95"
         sodipodi:rx="12.5"
         sodipodi:ry="15"
         d="m 165,95 c 0,8.28427 -5.59644,15 -12.5,15 -6.90356,0 -12.5,-6.71573 -12.5,-15 0,-8.284271 5.59644,-15 12.5,-15 6.90356,0 12.5,6.715729 12.5,15 z"
         transform="matrix(0.58666666,0,0,0.48888888,126.90833,974.66773)" />
    </g>
  </g>
</svg>
