<?xml version="1.0" encoding="UTF-8" standalone="no"?>
<!-- Created with Inkscape (http://www.inkscape.org/) -->

<svg
   xmlns:dc="http://purl.org/dc/elements/1.1/"
   xmlns:cc="http://creativecommons.org/ns#"
   xmlns:rdf="http://www.w3.org/1999/02/22-rdf-syntax-ns#"
   xmlns:svg="http://www.w3.org/2000/svg"
   xmlns="http://www.w3.org/2000/svg"
   xmlns:sodipodi="http://sodipodi.sourceforge.net/DTD/sodipodi-0.dtd"
   xmlns:inkscape="http://www.inkscape.org/namespaces/inkscape"
   id="svg2"
   version="1.1"
   inkscape:version="0.91 r13725"
   xml:space="preserve"
   width="461.25"
   height="161.25"
   viewBox="0 0 461.25 161.25"
   sodipodi:docname="0008_triacts.svg"><metadata
     id="metadata8"><rdf:RDF><cc:Work
         rdf:about=""><dc:format>image/svg+xml</dc:format><dc:type
           rdf:resource="http://purl.org/dc/dcmitype/StillImage" /><dc:title /></cc:Work></rdf:RDF></metadata><defs
     id="defs6"><clipPath
       clipPathUnits="userSpaceOnUse"
       id="clipPath18"><path
         d="m 0,0 491,0 0,172.00001 -491,0 L 0,0 Z"
         id="path20"
         inkscape:connector-curvature="0" /></clipPath></defs><sodipodi:namedview
     pagecolor="#ffffff"
     bordercolor="#666666"
     borderopacity="1"
     objecttolerance="10"
     gridtolerance="10"
     guidetolerance="10"
     inkscape:pageopacity="0"
     inkscape:pageshadow="2"
     inkscape:window-width="1366"
     inkscape:window-height="719"
     id="namedview4"
     showgrid="false"
     inkscape:zoom="1.4092141"
     inkscape:cx="244.38743"
     inkscape:cy="124.06437"
     inkscape:window-x="0"
     inkscape:window-y="25"
     inkscape:window-maximized="1"
     inkscape:current-layer="g10" /><g
     id="g10"
     inkscape:groupmode="layer"
     inkscape:label="0008_triacts"
     transform="matrix(1.25,0,0,-1.25,0,161.25)"><g
       transform="matrix(0.7505172,0,0,-0.75151073,0,129)"
       id="g28"><path
         inkscape:connector-curvature="0"
         id="path30"
         style="fill:#ffffff;fill-opacity:1;fill-rule:nonzero;stroke:none"
         d="m 64,152 163,0 0,-138.999996 -163,0 L 64,152 Z" /></g><g
       transform="matrix(0.7505172,0,0,-0.75151073,0,129)"
       id="g36"
       style="stroke:#000000;stroke-opacity:1;stroke-width:1.00024793;stroke-miterlimit:4;stroke-dasharray:none"><path
         inkscape:connector-curvature="0"
         id="path38"
         style="fill:none;stroke:#000000;stroke-width:1.00024793;stroke-linecap:square;stroke-linejoin:miter;stroke-miterlimit:4;stroke-dasharray:none;stroke-opacity:1"
         d="m 64,152 0,1.63" /></g><g
       transform="matrix(0.7505172,0,0,-0.75151073,0,129)"
       id="g40"
       style="stroke:#000000;stroke-opacity:1"><path
         inkscape:connector-curvature="0"
         id="path42"
         style="fill:none;stroke:#000000;stroke-width:1;stroke-linecap:square;stroke-linejoin:miter;stroke-miterlimit:10;stroke-dasharray:none;stroke-opacity:1"
         d="m 104.75,152 0,1.63" /></g><g
       transform="matrix(0.7505172,0,0,-0.75151073,0,129)"
       id="g44"
       style="stroke:#000000;stroke-opacity:1"><path
         inkscape:connector-curvature="0"
         id="path46"
         style="fill:none;stroke:#000000;stroke-width:1;stroke-linecap:square;stroke-linejoin:miter;stroke-miterlimit:10;stroke-dasharray:none;stroke-opacity:1"
         d="m 145.5,152 0,1.63" /></g><g
       transform="matrix(0.7505172,0,0,-0.75151073,0,129)"
       id="g48"
       style="stroke:#000000;stroke-opacity:1"><path
         inkscape:connector-curvature="0"
         id="path50"
         style="fill:none;stroke:#000000;stroke-width:1;stroke-linecap:square;stroke-linejoin:miter;stroke-miterlimit:10;stroke-dasharray:none;stroke-opacity:1"
         d="m 186.25,152 0,1.63" /></g><g
       transform="matrix(0.7505172,0,0,-0.75151073,0,129)"
       id="g52"
       style="stroke:#000000;stroke-opacity:1"><path
         inkscape:connector-curvature="0"
         id="path54"
         style="fill:none;stroke:#000000;stroke-width:1;stroke-linecap:square;stroke-linejoin:miter;stroke-miterlimit:10;stroke-dasharray:none;stroke-opacity:1"
         d="m 227,152 0,1.63" /></g><g
       transform="matrix(0.7505172,0,0,-0.75151073,0,129)"
       id="g108"
       style="stroke:#000000;stroke-opacity:1;stroke-width:1.00024793;stroke-miterlimit:4;stroke-dasharray:none"><path
         inkscape:connector-curvature="0"
         id="path110"
         style="fill:none;stroke:#000000;stroke-width:1.00024793;stroke-linecap:square;stroke-linejoin:miter;stroke-miterlimit:4;stroke-dasharray:none;stroke-opacity:1"
         d="m 64,152 -1.630001,0" /></g><g
       transform="matrix(0.7505172,0,0,-0.75151073,0,129)"
       id="g112"
       style="stroke:#000000;stroke-opacity:1;stroke-width:1.00024793;stroke-miterlimit:4;stroke-dasharray:none"><path
         inkscape:connector-curvature="0"
         id="path114"
         style="fill:none;stroke:#000000;stroke-width:1.00024793;stroke-linecap:square;stroke-linejoin:miter;stroke-miterlimit:4;stroke-dasharray:none;stroke-opacity:1"
         d="m 64,121.11111 -1.630001,0" /></g><g
       transform="matrix(0.7505172,0,0,-0.75151073,0,129)"
       id="g116"
       style="stroke:#000000;stroke-opacity:1;stroke-width:1.00024793;stroke-miterlimit:4;stroke-dasharray:none"><path
         inkscape:connector-curvature="0"
         id="path118"
         style="fill:none;stroke:#000000;stroke-width:1.00024793;stroke-linecap:square;stroke-linejoin:miter;stroke-miterlimit:4;stroke-dasharray:none;stroke-opacity:1"
         d="m 64,90.222221 -1.630001,0" /></g><g
       transform="matrix(0.7505172,0,0,-0.75151073,0,129)"
       id="g120"
       style="stroke:#000000;stroke-opacity:1;stroke-width:1.00024793;stroke-miterlimit:4;stroke-dasharray:none"><path
         inkscape:connector-curvature="0"
         id="path122"
         style="fill:none;stroke:#000000;stroke-width:1.00024793;stroke-linecap:square;stroke-linejoin:miter;stroke-miterlimit:4;stroke-dasharray:none;stroke-opacity:1"
         d="m 64,59.333328 -1.630001,0" /></g><g
       transform="matrix(0.7505172,0,0,-0.75151073,0,129)"
       id="g124"
       style="stroke:#000000;stroke-opacity:1;stroke-width:1.00024793;stroke-miterlimit:4;stroke-dasharray:none"><path
         inkscape:connector-curvature="0"
         id="path126"
         style="fill:none;stroke:#000000;stroke-width:1.00024793;stroke-linecap:square;stroke-linejoin:miter;stroke-miterlimit:4;stroke-dasharray:none;stroke-opacity:1"
         d="m 64,28.444443 -1.630001,0" /></g><g
       transform="matrix(0.7505172,0,0,-0.75151073,0,129)"
       id="g168"><path
         inkscape:connector-curvature="0"
         id="path170"
         style="fill:none;stroke:#0000ff;stroke-width:1;stroke-linecap:butt;stroke-linejoin:bevel;stroke-miterlimit:10;stroke-dasharray:none;stroke-opacity:1"
         d="m 64,151.20821 0.452774,-5.89818 0.452782,-6.21237 0.452774,-6.2215 0.452781,-6.23403 0.452774,-6.23595 0.452782,-6.19742 0.452774,-6.18297 0.452782,-6.1162 0.452774,-5.967924 0.452782,-5.813324 0.452774,-5.616555 0.452781,-5.36457 0.452774,-5.055794 0.452782,-4.704788 0.452774,-4.363198 0.452782,-4.024353 0.452774,-3.647426 0.452782,-3.267235 0.452774,-2.922451 0.452781,-2.586922 0.452774,-2.280567 0.452782,-2.007892 0.452774,-1.703938 0.452782,-1.390949 0.452774,-1.106526 0.452781,-0.826313 0.452774,-0.571548 0.452782,-0.338352 0.452774,-0.120858 0.452782,0.08158 0.452774,0.283828 0.452782,0.481408 0.452774,0.67382 0.452781,0.845757 0.452774,0.969249 0.452782,1.036164 0.452774,1.070465 0.452782,1.09441 0.452774,1.068588 0.452782,0.974567 0.452774,0.835068 0.452781,0.657623 0.452774,0.442109 0.452782,0.189083 0.452774,-0.09651 0.452774,-0.383541 0.452782,-0.639054 0.452774,-0.87606 0.452781,-1.07832" /></g><g
       transform="matrix(0.7505172,0,0,-0.75151073,0,129)"
       id="g172"><path
         inkscape:connector-curvature="0"
         id="path174"
         style="fill:none;stroke:#0000ff;stroke-width:1;stroke-linecap:butt;stroke-linejoin:bevel;stroke-miterlimit:10;stroke-dasharray:none;stroke-opacity:1"
         d="m 86.186111,45.858337 0.452774,-1.253765 0.452782,-1.384597 0.452774,-1.503083 0.452782,-1.605163 0.452774,-1.661759 0.452782,-1.666805 0.452774,-1.641811 0.452781,-1.595532 0.452774,-1.524994 0.452782,-1.389068 0.452774,-1.190701 0.452782,-0.944107 0.452774,-0.66934 0.452782,-0.348847 0.452774,0.01839 0.452781,0.408361 0.452774,0.779484 0.452782,1.14852 0.452774,1.53322 0.452782,1.875864 0.452774,2.191414 0.452781,2.508427 0.452774,2.811031 0.452782,3.079029 0.452774,3.32674 0.452782,3.552864 0.452774,3.775479 0.452782,3.965111 0.452774,4.128864 0.452781,4.295853 0.452773,4.448516 0.45278,4.554894 0.45278,4.636062 0.45278,4.688637 0.45277,4.646286 0.45278,4.472077 0.45278,4.136909 0.45278,3.599073 0.45277,2.81524 0.45279,1.77321 0.45277,0.57331 0.45277,-0.69723 0.45279,-1.89042 0.45277,-2.90051 0.45278,-3.668425 0.45278,-4.196167 0.45278,-4.527229 0.45277,-4.689568 0.45278,-4.715934" /></g><g
       transform="matrix(0.7505172,0,0,-0.75151073,0,129)"
       id="g176"><path
         inkscape:connector-curvature="0"
         id="path178"
         style="fill:none;stroke:#0000ff;stroke-width:1;stroke-linecap:butt;stroke-linejoin:bevel;stroke-miterlimit:10;stroke-dasharray:none;stroke-opacity:1"
         d="m 108.37222,79.93615 0.45278,-4.648919 0.45278,-4.553558 0.45277,-4.421783 0.45278,-4.259648 0.45278,-4.087959 0.45278,-3.930309 0.45277,-3.736527 0.45279,-3.520115 0.45277,-3.290817 0.45278,-3.04295 0.45278,-2.771221 0.45278,-2.471142 0.45277,-2.152908 0.45278,-1.834436 0.45278,-1.494318 0.45278,-1.111542 0.45277,-0.747227 0.45278,-0.379097 0.45278,0.01209 0.45278,0.373215 0.45277,0.693928 0.45279,0.964746 0.45277,1.217321 0.45278,1.406573 0.45278,1.534473 0.45278,1.602566 0.45277,1.641552 0.45278,1.66106 0.45278,1.658142 0.45278,1.600525 0.45277,1.495835 0.45278,1.38153 0.45278,1.241627 0.45278,1.061443 0.45277,0.856492 0.45279,0.621604 0.45277,0.362042 0.45277,0.0799 0.45279,-0.198685 0.45277,-0.453071 0.45278,-0.661682 0.45278,-0.835999 0.45278,-0.976013 0.45278,-1.064705 0.45277,-1.085903 0.45278,-1.064884 0.45277,-1.03669 0.45279,-0.967831 0.45277,-0.839901" /></g><g
       transform="matrix(0.7505172,0,0,-0.75151073,0,129)"
       id="g180"><path
         inkscape:connector-curvature="0"
         id="path182"
         style="fill:none;stroke:#0000ff;stroke-width:1;stroke-linecap:butt;stroke-linejoin:bevel;stroke-miterlimit:10;stroke-dasharray:none;stroke-opacity:1"
         d="m 130.55833,39.762966 0.45278,-0.663643 0.45277,-0.465038 0.45279,-0.27095 0.45278,-0.07485 0.45277,0.126862 0.45277,0.340588 0.45279,0.575813 0.45278,0.828438 0.45277,1.109588 0.45278,1.395699 0.45278,1.711239 0.45278,2.013222 0.45277,2.293293 0.45278,2.599964 0.45279,2.929969 0.45277,3.286984 0.45277,3.666214 0.45278,4.041511 0.45279,4.383278 0.45277,4.729393 0.45278,5.074273 0.45277,5.385543 0.45279,5.628724 0.45277,5.818992 0.45278,5.986928 0.45277,6.13749 0.45279,6.21172 0.45277,6.22393 0.45278,6.25738 0.45277,6.25517 0.45279,6.2381 0.45278,6.23013 L 145.5,152 l 0.45277,-6.23151 0.45278,-6.22709 0.45279,-6.22516 0.45277,-6.23329 0.45278,-6.2338 0.45277,-6.19797 0.45279,-6.17482 0.45277,-6.1031 0.45278,-5.96099 0.45277,-5.801361 0.45279,-5.606057 0.45277,-5.362159 0.45278,-5.059067 0.45277,-4.71595 0.45279,-4.378937 0.45278,-4.047142" /></g><g
       transform="matrix(0.7505172,0,0,-0.75151073,0,129)"
       id="g184"><path
         inkscape:connector-curvature="0"
         id="path186"
         style="fill:none;stroke:#0000ff;stroke-width:1;stroke-linecap:butt;stroke-linejoin:bevel;stroke-miterlimit:10;stroke-dasharray:none;stroke-opacity:1"
         d="m 152.74445,61.441597 0.45277,-3.670116 0.45277,-3.286393 0.45279,-2.948326 0.45278,-2.620468 0.45277,-2.315636 0.45278,-2.053032 0.45278,-1.76086 0.45278,-1.453812 0.45277,-1.169555 0.45278,-0.88855 0.45279,-0.63596 0.45277,-0.406292 0.45277,-0.182132 0.45278,0.02992 0.45279,0.241833 0.45277,0.449959 0.45278,0.637333 0.45277,0.817928 0.45279,0.952946 0.45277,1.03099 0.45278,1.072884 0.45277,1.108688 0.45279,1.090874 0.45277,0.998238 0.45278,0.867138 0.45277,0.693138 0.45279,0.486358 0.45278,0.240765 0.45277,-0.03899 0.45277,-0.326542 0.45278,-0.594711 0.45279,-0.842461 0.45277,-1.054355 0.45278,-1.236718 0.45277,-1.385067 0.45279,-1.501182 0.45277,-1.602348 0.45278,-1.666214 0.45277,-1.686055 0.45279,-1.663036 0.45277,-1.627422 0.45278,-1.555777 0.45277,-1.428627 0.45279,-1.233284 0.45278,-0.996654 0.45277,-0.719418 0.45277,-0.40733 0.45279,-0.02716 0.45278,0.359073" /></g><g
       transform="matrix(0.7505172,0,0,-0.75151073,0,129)"
       id="g188"><path
         inkscape:connector-curvature="0"
         id="path190"
         style="fill:none;stroke:#0000ff;stroke-width:1;stroke-linecap:butt;stroke-linejoin:bevel;stroke-miterlimit:10;stroke-dasharray:none;stroke-opacity:1"
         d="m 174.93056,27.535177 0.45277,0.729325 0.45278,1.122734 0.45278,1.509727 0.45278,1.858336 0.45277,2.195179 0.45278,2.532959 0.45279,2.859554 0.45277,3.146385 0.45277,3.396023 0.45278,3.624302 0.45279,3.873276 0.45277,4.072498 0.45278,4.251324 0.45277,4.423175 0.45279,4.571602 0.45277,4.680695 0.45278,4.790962 0.45277,4.834312 0.45279,4.782013 0.45277,4.594544 0.45278,4.24086 0.45277,3.691818 0.45279,2.88414 0.45278,1.82883 0.45277,0.59591 0.45277,-0.72158 0.45278,-1.94317 0.45279,-2.97016 0.45277,-3.755147 0.45278,-4.297035 0.45277,-4.646553 0.45279,-4.826523 0.45277,-4.865471 0.45278,-4.801704 0.45277,-4.67868 0.45279,-4.547661 0.45277,-4.390358 0.45278,-4.212742 0.45277,-4.042515 0.45279,-3.836391 0.45278,-3.589779 0.45277,-3.361531 0.45277,-3.107223 0.45279,-2.817753 0.45278,-2.496365 0.45277,-2.156185 0.45278,-1.819231 0.45278,-1.472334 0.45278,-1.086731" /></g><g
       transform="matrix(0.7505172,0,0,-0.75151073,0,129)"
       id="g192"><path
         inkscape:connector-curvature="0"
         id="path194"
         style="fill:none;stroke:#0000ff;stroke-width:1;stroke-linecap:butt;stroke-linejoin:bevel;stroke-miterlimit:10;stroke-dasharray:none;stroke-opacity:1"
         d="m 197.11667,28.182838 0.45277,-0.699489 0.45278,-0.329331 0.45279,0.05873 0.45277,0.433409 0.45277,0.747551 0.45278,1.019236 0.45279,1.264261 0.45277,1.445778 0.45278,1.565578 0.45277,1.63094 0.45279,1.662704 0.45277,1.681626 0.45278,1.664363 0.45277,1.598851 0.45279,1.494281 0.45277,1.378548 0.45278,1.223011 0.45277,1.038605 0.45279,0.822464 0.45278,0.576549 0.45277,0.304429 0.45277,0.02333 0.45278,-0.251155 0.45279,-0.496239 0.45277,-0.697086 0.45278,-0.865693 0.45277,-0.999397 0.45279,-1.086403 0.45277,-1.098953 0.45278,-1.066994 0.45277,-1.032089 0.45279,-0.951977 0.45277,-0.810482 0.45278,-0.62875 0.45277,-0.433151 0.45279,-0.229431 0.45278,-0.02387 0.45277,0.186348 0.45277,0.408058 0.45279,0.639698 0.45278,0.889187 0.45277,1.172325 0.45278,1.460312 0.45278,1.769836 0.45278,2.059853 0.45277,2.328376 0.45278,2.632737 0.45279,2.956741 0.45277,3.306541" /></g><g
       transform="matrix(0.7505172,0,0,-0.75151073,0,129)"
       id="g196"><path
         inkscape:connector-curvature="0"
         id="path198"
         style="fill:none;stroke:#0000ff;stroke-width:1;stroke-linecap:butt;stroke-linejoin:bevel;stroke-miterlimit:10;stroke-dasharray:none;stroke-opacity:1"
         d="m 219.30278,57.926601 0.45277,3.687695 0.45278,4.064079 0.45279,4.397499 0.45277,4.737961 0.45278,5.076943 0.45277,5.381576 0.45279,5.616631 0.45277,5.804107 0.45278,5.979678 0.45277,6.12353 0.45279,6.20001 0.45277,6.22168 0.45278,6.25374 0.45277,6.24832 0.45279,6.22824 0.45278,6.20883 0.45277,5.05109" /></g><g
       transform="matrix(0.7505172,0,0,-0.75151073,-9.6340578,129)"
       id="g200"><path
         inkscape:connector-curvature="0"
         id="path202"
         style="fill:#ffffff;fill-opacity:1;fill-rule:nonzero;stroke:none"
         d="m 280,152 164,0 0,-138.999996 -164,0 L 280,152 Z" /></g><g
       transform="matrix(0.7505172,0,0,-0.75151073,-9.6340578,129)"
       id="g208"
       style="stroke:#000000;stroke-opacity:1"><path
         inkscape:connector-curvature="0"
         id="path210"
         style="fill:none;stroke:#000000;stroke-width:1;stroke-linecap:butt;stroke-linejoin:bevel;stroke-miterlimit:10;stroke-dasharray:none;stroke-opacity:1"
         d="m 280,152 0,1.64" /></g><g
       transform="matrix(0.7505172,0,0,-0.75151073,-9.6340578,128.78712)"
       id="g212"
       style="stroke:#000000;stroke-opacity:1"><path
         inkscape:connector-curvature="0"
         id="path214"
         style="fill:none;stroke:#000000;stroke-width:1;stroke-linecap:butt;stroke-linejoin:bevel;stroke-miterlimit:10;stroke-dasharray:none;stroke-opacity:1"
         d="m 321,152 0,1.64" /></g><g
       transform="matrix(0.7505172,0,0,-0.75151073,-9.6340578,129)"
       id="g216"
       style="stroke:#000000;stroke-opacity:1"><path
         inkscape:connector-curvature="0"
         id="path218"
         style="fill:none;stroke:#000000;stroke-width:1;stroke-linecap:butt;stroke-linejoin:bevel;stroke-miterlimit:10;stroke-dasharray:none;stroke-opacity:1"
         d="m 362,152 0,1.64" /></g><g
       transform="matrix(0.7505172,0,0,-0.75151073,-9.6340578,129)"
       id="g220"
       style="stroke:#000000;stroke-opacity:1"><path
         inkscape:connector-curvature="0"
         id="path222"
         style="fill:none;stroke:#000000;stroke-width:1;stroke-linecap:butt;stroke-linejoin:bevel;stroke-miterlimit:10;stroke-dasharray:none;stroke-opacity:1"
         d="m 403,152 0,1.64" /></g><g
       transform="matrix(0.7505172,0,0,-0.75151073,-9.6340578,129)"
       id="g224"
       style="stroke:#000000;stroke-opacity:1"><path
         inkscape:connector-curvature="0"
         id="path226"
         style="fill:none;stroke:#000000;stroke-width:1;stroke-linecap:butt;stroke-linejoin:bevel;stroke-miterlimit:10;stroke-dasharray:none;stroke-opacity:1"
         d="m 444,152 0,1.64" /></g><g
       transform="matrix(0.7505172,0,0,-0.75151073,-9.6340578,129)"
       id="g272"
       style="stroke:#000000;stroke-opacity:1"><path
         inkscape:connector-curvature="0"
         id="path274"
         style="fill:none;stroke:#000000;stroke-width:1;stroke-linecap:square;stroke-linejoin:miter;stroke-miterlimit:10;stroke-dasharray:none;stroke-opacity:1"
         d="m 280,152 -1.64001,0" /></g><g
       transform="matrix(0.7505172,0,0,-0.75151073,-9.6340578,129)"
       id="g276"
       style="stroke:#000000;stroke-opacity:1"><path
         inkscape:connector-curvature="0"
         id="path278"
         style="fill:none;stroke:#000000;stroke-width:1;stroke-linecap:square;stroke-linejoin:miter;stroke-miterlimit:10;stroke-dasharray:none;stroke-opacity:1"
         d="m 280,121.11111 -1.64001,0" /></g><g
       transform="matrix(0.7505172,0,0,-0.75151073,-9.6340578,129)"
       id="g280"
       style="stroke:#000000;stroke-opacity:1"><path
         inkscape:connector-curvature="0"
         id="path282"
         style="fill:none;stroke:#000000;stroke-width:1;stroke-linecap:square;stroke-linejoin:miter;stroke-miterlimit:10;stroke-dasharray:none;stroke-opacity:1"
         d="m 280,90.222221 -1.64001,0" /></g><g
       transform="matrix(0.7505172,0,0,-0.75151073,-9.6340578,129)"
       id="g284"
       style="stroke:#000000;stroke-opacity:1"><path
         inkscape:connector-curvature="0"
         id="path286"
         style="fill:none;stroke:#000000;stroke-width:1;stroke-linecap:square;stroke-linejoin:miter;stroke-miterlimit:10;stroke-dasharray:none;stroke-opacity:1"
         d="m 280,59.333328 -1.64001,0" /></g><g
       transform="matrix(0.7505172,0,0,-0.75151073,-9.6340578,129)"
       id="g288"
       style="stroke:#000000;stroke-opacity:1"><path
         inkscape:connector-curvature="0"
         id="path290"
         style="fill:none;stroke:#000000;stroke-width:1;stroke-linecap:square;stroke-linejoin:miter;stroke-miterlimit:10;stroke-dasharray:none;stroke-opacity:1"
         d="m 280,28.444443 -1.64001,0" /></g><g
       transform="matrix(0.7505172,0,0,-0.75151073,-9.6340578,129)"
       id="g292"><path
         inkscape:connector-curvature="0"
         id="path294"
         style="fill:none;stroke:#0000ff;stroke-width:1;stroke-linecap:square;stroke-linejoin:miter;stroke-miterlimit:10;stroke-dasharray:none;stroke-opacity:1"
         d="m 280,150.98045 0.45557,-6.10278 0.45553,-6.40636 0.45557,-6.43371 0.45557,-6.43473 0.45553,-6.39624 0.45557,-6.36177 0.45556,-6.32234 0.45554,-6.2643 0.45557,-6.161151 0.45553,-6.045578 0.45557,-5.904465 0.45556,-5.681229 0.45554,-5.427238 0.45557,-5.136742 0.45556,-4.821861 0.45554,-4.439728 0.45557,-4.038803 0.45556,-3.652305 0.45554,-3.241154 0.45556,-2.801644 0.45557,-2.370178 0.45554,-1.997165 0.45556,-1.631951 0.45554,-1.288086 0.45557,-0.97351 0.45556,-0.671845 0.45554,-0.362045 0.45556,-0.05249 0.45557,0.250244 0.45554,0.530841 0.45556,0.769875 0.45557,0.957714 0.45554,1.117809 0.45556,1.23436 0.45557,1.313042 0.45553,1.336784 0.45557,1.313168 0.45554,1.249443 0.45556,1.128193 0.45557,0.955421 0.45553,0.759609 0.45557,0.547936 0.45557,0.325981 0.45553,0.09721 0.45557,-0.133213 0.45557,-0.334827 0.45553,-0.524472 0.45557,-0.709953 0.45557,-0.876789" /></g><g
       transform="matrix(0.7505172,0,0,-0.75151073,-9.6340578,129)"
       id="g296"><path
         inkscape:connector-curvature="0"
         id="path298"
         style="fill:none;stroke:#0000ff;stroke-width:1;stroke-linecap:square;stroke-linejoin:miter;stroke-miterlimit:10;stroke-dasharray:none;stroke-opacity:1"
         d="m 302.32224,44.867428 0.45553,-1.019402 0.45557,-1.139209 0.45556,-1.216469 0.45554,-1.270123 0.45557,-1.300319 0.45553,-1.298684 0.45557,-1.251499 0.45556,-1.14344 0.45554,-0.981438 0.45557,-0.792877 0.45556,-0.589996 0.45554,-0.338547 0.45557,-0.06459 0.45556,0.219822 0.45554,0.558071 0.45556,0.904782 0.45557,1.249164 0.45554,1.618237 0.45556,1.967827 0.45554,2.287491 0.45557,2.572662 0.45556,2.830421 0.45554,3.072609 0.45556,3.311112 0.45557,3.545906 0.45554,3.788181 0.45556,4.023399 0.45557,4.262459 0.45554,4.485695 0.45556,4.726669 0.45557,4.977272 0.45553,5.220322 0.45557,5.447067 0.45554,5.659264 0.45556,5.802233 0.45557,5.8379 0.45553,5.74455 0.45557,5.42045 0.45557,4.6578 0.45553,3.24505 0.45557,1.10435 0.45557,-1.34787 0.45553,-3.43129 0.45557,-4.77168 0.45557,-5.48274 0.45553,-5.77313 0.45557,-5.84519 0.45556,-5.7913 0.45554,-5.632194" /></g><g
       transform="matrix(0.7505172,0,0,-0.75151073,-9.6340578,129)"
       id="g300"><path
         inkscape:connector-curvature="0"
         id="path302"
         style="fill:none;stroke:#0000ff;stroke-width:1;stroke-linecap:square;stroke-linejoin:miter;stroke-miterlimit:10;stroke-dasharray:none;stroke-opacity:1"
         d="m 324.64444,92.926209 0.45557,-5.421113 0.45553,-5.191215 0.45557,-4.94326 0.45556,-4.684708 0.45554,-4.444427 0.45557,-4.214493 0.45556,-3.977818 0.45554,-3.744194 0.45557,-3.508793 0.45556,-3.274269 0.45554,-3.03202 0.45556,-2.793259 0.45557,-2.537765 0.45554,-2.249547 0.45556,-1.926658 0.45554,-1.577179 0.45557,-1.209469 0.45556,-0.861496 0.45554,-0.516361 0.45556,-0.187969 0.45557,0.09429 0.45554,0.36388 0.45556,0.605996 0.45557,0.8026 0.45554,0.983719 0.45556,1.146771 0.45557,1.245041 0.45553,1.288555 0.45557,1.284927 0.45554,1.244744 0.45556,1.186081 0.45557,1.111713 0.45553,0.992687 0.45557,0.844971 0.45557,0.676861 0.45553,0.493469 0.45557,0.307033 0.45557,0.11522 0.45553,-0.112107 0.45557,-0.344623 0.45557,-0.561714 0.45553,-0.76624 0.45557,-0.965107 0.45556,-1.139404 0.45554,-1.25827 0.45557,-1.315609 0.45553,-1.336212 0.45557,-1.30613 0.45556,-1.223728" /></g><g
       transform="matrix(0.7505172,0,0,-0.75151073,-9.6340578,129)"
       id="g304"><path
         inkscape:connector-curvature="0"
         id="path306"
         style="fill:none;stroke:#0000ff;stroke-width:1;stroke-linecap:square;stroke-linejoin:miter;stroke-miterlimit:10;stroke-dasharray:none;stroke-opacity:1"
         d="m 346.96667,37.089611 0.45554,-1.10434 0.45557,-0.949008 0.45556,-0.759949 0.45554,-0.510617 0.45557,-0.229846 0.45556,0.07626 0.45554,0.387402 0.45556,0.690132 0.45557,0.992355 0.45554,1.314297 0.45556,1.655205 0.45554,2.015732 0.45557,2.398475 0.45556,2.833004 0.45554,3.270054 0.45556,3.689461 0.45557,4.088337 0.45554,4.4864 0.45556,4.862675 0.45557,5.175667 0.45554,5.455437 0.45556,5.704437 0.45557,5.934242 0.45553,6.075043 0.45557,6.190564 0.45554,6.28339 0.45556,6.33411 0.45557,6.37815 0.45553,6.41111 0.45557,6.44989 0.45557,6.44783 0.45553,6.437 L 362,152 l 0.45557,-6.42776 0.45553,-6.43467 0.45557,-6.44937 0.45557,-6.44092 0.45553,-6.40074 0.45557,-6.36404 0.45556,-6.32221 0.45554,-6.25753 0.45557,-6.161534 0.45553,-6.041725 0.45557,-5.897301 0.45556,-5.684181 0.45554,-5.432793 0.45557,-5.140502 0.45556,-4.832997 0.45554,-4.461864" /></g><g
       transform="matrix(0.7505172,0,0,-0.75151073,-9.6340578,129)"
       id="g308"><path
         inkscape:connector-curvature="0"
         id="path310"
         style="fill:none;stroke:#0000ff;stroke-width:1;stroke-linecap:square;stroke-linejoin:miter;stroke-miterlimit:10;stroke-dasharray:none;stroke-opacity:1"
         d="m 369.28888,57.249863 0.45557,-4.066006 0.45556,-3.679318 0.45554,-3.280979 0.45556,-2.850956 0.45557,-2.425464 0.45554,-2.055172 0.45556,-1.698666 0.45554,-1.360485 0.45557,-1.059944 0.45556,-0.761101 0.45554,-0.453476 0.45556,-0.141453 0.45557,0.16383 0.45554,0.439411 0.45556,0.690503 0.45557,0.889953 0.45554,1.064022 0.45556,1.200188 0.45557,1.301048 0.45553,1.337601 0.45557,1.326862 0.45554,1.276318 0.45556,1.172142 0.45557,1.018699 0.45553,0.838162 0.45557,0.635059 0.45557,0.411702 0.45553,0.1786 0.45557,-0.06242 0.45557,-0.282467 0.45553,-0.479179 0.45557,-0.67371 0.45557,-0.843521 0.45553,-0.992043 0.45557,-1.123626 0.45556,-1.213944 0.45554,-1.271236 0.45557,-1.31065 0.45553,-1.321831 0.45557,-1.283909 0.45556,-1.184292 0.45554,-1.032215 0.45557,-0.848278 0.45556,-0.641769 0.45554,-0.390961 0.45557,-0.120079 0.45556,0.163586 0.45554,0.510044 0.45556,0.861969" /></g><g
       transform="matrix(0.7505172,0,0,-0.75151073,-9.6340578,129)"
       id="g312"><path
         inkscape:connector-curvature="0"
         id="path314"
         style="fill:none;stroke:#0000ff;stroke-width:1;stroke-linecap:square;stroke-linejoin:miter;stroke-miterlimit:10;stroke-dasharray:none;stroke-opacity:1"
         d="m 391.61111,33.820408 0.45557,1.20549 0.45554,1.578274 0.45556,1.944694 0.45554,2.273304 0.45557,2.573456 0.45556,2.83009 0.45554,3.077903 0.45556,3.33704 0.45557,3.574982 0.45554,3.836197 0.45556,4.081867 0.45557,4.323898 0.45554,4.565384 0.45556,4.822075 0.45557,5.087807 0.45553,5.345627 0.45557,5.584305 0.45554,5.799301 0.45556,5.953748 0.45557,6.03689 0.45553,5.99094 0.45557,5.70838 0.45557,5.00269 0.45553,3.57604 0.45557,1.24272 0.45557,-1.51308 0.45553,-3.76523 0.45557,-5.11041 0.45557,-5.76525 0.45553,-6.0109 0.45557,-6.04271 0.45556,-5.936984 0.45554,-5.772034 0.45557,-5.55365 0.45553,-5.317444 0.45557,-5.05677 0.45556,-4.780952 0.45554,-4.522057 0.45557,-4.277691 0.45556,-4.039623 0.45554,-3.789269 0.45557,-3.540813 0.45556,-3.298489 0.45554,-3.03461 0.45556,-2.796673 0.45557,-2.538658 0.45554,-2.235131 0.45556,-1.902587 0.45554,-1.538239" /></g><g
       transform="matrix(0.7505172,0,0,-0.75151073,-9.6340578,129)"
       id="g316"><path
         inkscape:connector-curvature="0"
         id="path318"
         style="fill:none;stroke:#0000ff;stroke-width:1;stroke-linecap:square;stroke-linejoin:miter;stroke-miterlimit:10;stroke-dasharray:none;stroke-opacity:1"
         d="m 413.93332,35.034256 0.45557,-1.166237 0.45556,-0.816513 0.45554,-0.46814 0.45556,-0.128906 0.45557,0.147564 0.45554,0.415672 0.45556,0.66042 0.45557,0.858497 0.45554,1.036282 0.45556,1.187397 0.45557,1.276897 0.45553,1.311432 0.45557,1.29234 0.45554,1.243675 0.45556,1.18272 0.45557,1.096783 0.45553,0.96426 0.45557,0.81303 0.45557,0.640923 0.45553,0.446544 0.45557,0.256302 0.45557,0.04303 0.45553,-0.19421 0.45557,-0.429645 0.45557,-0.647633 0.45553,-0.841393 0.45557,-1.026893 0.45556,-1.182755 0.45554,-1.283409 0.45557,-1.326545 0.45553,-1.338349 0.45557,-1.293579 0.45556,-1.187977 0.45554,-1.052597 0.45557,-0.882778 0.45556,-0.679909 0.45554,-0.422554 0.45557,-0.144234 0.45556,0.167061 0.45554,0.477764 0.45556,0.78011 0.45557,1.078205 0.45554,1.386799 0.45556,1.722294 0.45554,2.075008 0.45557,2.452606 0.45556,2.883553 0.45554,3.31134 0.45556,3.716488" /></g><g
       transform="matrix(0.7505172,0,0,-0.75151073,-9.6340578,129)"
       id="g320"><path
         inkscape:connector-curvature="0"
         id="path322"
         style="fill:none;stroke:#0000ff;stroke-width:1;stroke-linecap:square;stroke-linejoin:miter;stroke-miterlimit:10;stroke-dasharray:none;stroke-opacity:1"
         d="m 436.25555,53.444992 0.45557,4.112881 0.45554,4.508095 0.45556,4.87437 0.45557,5.178131 0.45554,5.459671 0.45556,5.706055 0.45557,5.926033 0.45553,6.070579 0.45557,6.187873 0.45554,6.27473 0.45556,6.32863 0.45557,6.37677 0.45553,6.41012 0.45557,6.44704 0.45557,6.4474 0.45553,6.41973 0.45557,4.80735" /></g><g
       transform="matrix(0.7505172,0,0,-0.75151073,-9.6340578,129)"
       id="g268"
       style="stroke:#000000;stroke-opacity:1;stroke-width:1.00024793;stroke-miterlimit:4;stroke-dasharray:none"><path
         inkscape:connector-curvature="0"
         id="path270"
         style="fill:none;stroke:#000000;stroke-width:1.00024793;stroke-linecap:square;stroke-linejoin:miter;stroke-miterlimit:4;stroke-dasharray:none;stroke-opacity:1"
         d="M 280,152 280,13.000004" /></g><g
       transform="matrix(0.7505172,0,0,-0.75151073,-9.6340578,129)"
       id="g204"
       style="stroke:#000000;stroke-width:1.00024796;stroke-linecap:square;stroke-miterlimit:4;stroke-dasharray:none;stroke-opacity:1"><path
         inkscape:connector-curvature="0"
         id="path206"
         style="fill:none;stroke:#000000;stroke-width:1.00024796;stroke-linecap:square;stroke-linejoin:bevel;stroke-miterlimit:4;stroke-dasharray:none;stroke-opacity:1"
         d="m 280,152 164,0" /></g><g
       transform="matrix(0.7505172,0,0,-0.75151073,0,129)"
       id="g104"
       style="stroke:#000000;stroke-opacity:1;stroke-width:1.00024793;stroke-miterlimit:4;stroke-dasharray:none"><path
         inkscape:connector-curvature="0"
         id="path106"
         style="fill:none;stroke:#000000;stroke-width:1.00024793;stroke-linecap:square;stroke-linejoin:miter;stroke-miterlimit:4;stroke-dasharray:none;stroke-opacity:1"
         d="M 64,152 64,13.000004" /></g><g
       transform="matrix(0.7505172,0,0,-0.75151073,0,129)"
       id="g32"
       style="fill:none;fill-opacity:1;stroke:#000000;stroke-opacity:1"><path
         inkscape:connector-curvature="0"
         id="path34"
         style="fill:none;stroke:#000000;stroke-width:1;stroke-linecap:square;stroke-linejoin:miter;stroke-miterlimit:10;stroke-dasharray:none;stroke-opacity:1;fill-opacity:1"
         d="m 64,152 163,0" /></g><text
       xml:space="preserve"
       style="font-style:normal;font-variant:normal;font-weight:normal;font-stretch:normal;font-size:8px;line-height:125%;font-family:Arial;-inkscape-font-specification:'Arial, Normal';text-align:start;letter-spacing:0px;word-spacing:0px;writing-mode:lr-tb;text-anchor:start;fill:#000000;fill-opacity:1;stroke:none;stroke-width:1px;stroke-linecap:butt;stroke-linejoin:miter;stroke-opacity:1"
       x="41.111225"
       y="-4.1745791"
       id="text4442"
       sodipodi:linespacing="125%"
       transform="scale(1,-1)"><tspan
         sodipodi:role="line"
         id="tspan4444"
         x="41.111225"
         y="-4.1745791">180°</tspan></text>
<text
       xml:space="preserve"
       style="font-style:normal;font-variant:normal;font-weight:normal;font-stretch:normal;font-size:8px;line-height:125%;font-family:Arial;-inkscape-font-specification:'Arial, Normal';text-align:start;letter-spacing:0px;word-spacing:0px;writing-mode:lr-tb;text-anchor:start;fill:#000000;fill-opacity:1;stroke:none;stroke-width:1px;stroke-linecap:butt;stroke-linejoin:miter;stroke-opacity:1"
       x="74.190895"
       y="-4.1745791"
       id="text4446"
       sodipodi:linespacing="125%"
       transform="scale(1,-1)"><tspan
         sodipodi:role="line"
         id="tspan4448"
         x="74.190895"
         y="-4.1745791">90°</tspan></text>
<text
       xml:space="preserve"
       style="font-style:normal;font-variant:normal;font-weight:normal;font-stretch:normal;font-size:8px;line-height:125%;font-family:Arial;-inkscape-font-specification:'Arial, Normal';text-align:start;letter-spacing:0px;word-spacing:0px;writing-mode:lr-tb;text-anchor:start;fill:#000000;fill-opacity:1;stroke:none;stroke-width:1px;stroke-linecap:butt;stroke-linejoin:miter;stroke-opacity:1"
       x="107.00104"
       y="-4.1745791"
       id="text4450"
       sodipodi:linespacing="125%"
       transform="scale(1,-1)"><tspan
         sodipodi:role="line"
         id="tspan4452"
         x="107.00104"
         y="-4.1745791">0°</tspan></text>
<text
       transform="scale(1,-1)"
       sodipodi:linespacing="125%"
       id="text4454"
       y="-4.1745791"
       x="163.44553"
       style="font-style:normal;font-variant:normal;font-weight:normal;font-stretch:normal;font-size:8px;line-height:125%;font-family:Arial;-inkscape-font-specification:'Arial, Normal';text-align:start;letter-spacing:0px;word-spacing:0px;writing-mode:lr-tb;text-anchor:start;fill:#000000;fill-opacity:1;stroke:none;stroke-width:1px;stroke-linecap:butt;stroke-linejoin:miter;stroke-opacity:1"
       xml:space="preserve"><tspan
         y="-4.1745791"
         x="163.44553"
         id="tspan4456"
         sodipodi:role="line">180°</tspan></text>
<text
       transform="scale(1,-1)"
       sodipodi:linespacing="125%"
       id="text4458"
       y="-4.1745791"
       x="135.35805"
       style="font-style:normal;font-variant:normal;font-weight:normal;font-stretch:normal;font-size:8px;line-height:125%;font-family:Arial;-inkscape-font-specification:'Arial, Normal';text-align:start;letter-spacing:0px;word-spacing:0px;writing-mode:lr-tb;text-anchor:start;fill:#000000;fill-opacity:1;stroke:none;stroke-width:1px;stroke-linecap:butt;stroke-linejoin:miter;stroke-opacity:1"
       xml:space="preserve"><tspan
         y="-4.1745791"
         x="135.35805"
         id="tspan4460"
         sodipodi:role="line">90°</tspan></text>
<text
       xml:space="preserve"
       style="font-style:normal;font-variant:normal;font-weight:normal;font-stretch:normal;font-size:8px;line-height:125%;font-family:Arial;-inkscape-font-specification:'Arial, Normal';text-align:start;letter-spacing:0px;word-spacing:0px;writing-mode:lr-tb;text-anchor:start;fill:#000000;fill-opacity:1;stroke:none;stroke-width:1px;stroke-linecap:butt;stroke-linejoin:miter;stroke-opacity:1"
       x="36.507462"
       y="-4.9655948"
       id="text4462"
       sodipodi:linespacing="125%"
       transform="scale(1,-1)"><tspan
         sodipodi:role="line"
         id="tspan4464"
         x="36.507462"
         y="-4.9655948">–</tspan></text>
<text
       transform="scale(1,-1)"
       sodipodi:linespacing="125%"
       id="text4466"
       y="-4.9655948"
       x="68.82708"
       style="font-style:normal;font-variant:normal;font-weight:normal;font-stretch:normal;font-size:8px;line-height:125%;font-family:Arial;-inkscape-font-specification:'Arial, Normal';text-align:start;letter-spacing:0px;word-spacing:0px;writing-mode:lr-tb;text-anchor:start;fill:#000000;fill-opacity:1;stroke:none;stroke-width:1px;stroke-linecap:butt;stroke-linejoin:miter;stroke-opacity:1"
       xml:space="preserve"><tspan
         y="-4.9655948"
         x="68.82708"
         id="tspan4468"
         sodipodi:role="line">–</tspan></text>
<text
       xml:space="preserve"
       style="font-style:normal;font-variant:normal;font-weight:normal;font-stretch:normal;font-size:8px;line-height:125%;font-family:Arial;-inkscape-font-specification:'Arial, Normal';text-align:start;letter-spacing:0px;word-spacing:0px;writing-mode:lr-tb;text-anchor:start;fill:#000000;fill-opacity:1;stroke:none;stroke-width:1px;stroke-linecap:butt;stroke-linejoin:miter;stroke-opacity:1"
       x="193.58888"
       y="-4.1745791"
       id="text4470"
       sodipodi:linespacing="125%"
       transform="scale(1,-1)"><tspan
         sodipodi:role="line"
         id="tspan4472"
         x="193.58888"
         y="-4.1745791">180°</tspan></text>
<text
       xml:space="preserve"
       style="font-style:normal;font-variant:normal;font-weight:normal;font-stretch:normal;font-size:8px;line-height:125%;font-family:Arial;-inkscape-font-specification:'Arial, Normal';text-align:start;letter-spacing:0px;word-spacing:0px;writing-mode:lr-tb;text-anchor:start;fill:#000000;fill-opacity:1;stroke:none;stroke-width:1px;stroke-linecap:butt;stroke-linejoin:miter;stroke-opacity:1"
       x="226.85617"
       y="-4.1745791"
       id="text4474"
       sodipodi:linespacing="125%"
       transform="scale(1,-1)"><tspan
         sodipodi:role="line"
         id="tspan4476"
         x="226.85617"
         y="-4.1745791">90°</tspan></text>
<text
       xml:space="preserve"
       style="font-style:normal;font-variant:normal;font-weight:normal;font-stretch:normal;font-size:8px;line-height:125%;font-family:Arial;-inkscape-font-specification:'Arial, Normal';text-align:start;letter-spacing:0px;word-spacing:0px;writing-mode:lr-tb;text-anchor:start;fill:#000000;fill-opacity:1;stroke:none;stroke-width:1px;stroke-linecap:butt;stroke-linejoin:miter;stroke-opacity:1"
       x="259.85394"
       y="-4.1745791"
       id="text4478"
       sodipodi:linespacing="125%"
       transform="scale(1,-1)"><tspan
         sodipodi:role="line"
         id="tspan4480"
         x="259.85394"
         y="-4.1745791">0°</tspan></text>
<text
       xml:space="preserve"
       style="font-style:normal;font-variant:normal;font-weight:normal;font-stretch:normal;font-size:8px;line-height:125%;font-family:Arial;-inkscape-font-specification:'Arial, Normal';text-align:start;letter-spacing:0px;word-spacing:0px;writing-mode:lr-tb;text-anchor:start;fill:#000000;fill-opacity:1;stroke:none;stroke-width:1px;stroke-linecap:butt;stroke-linejoin:miter;stroke-opacity:1"
       x="288.39859"
       y="-4.1745791"
       id="text4482"
       sodipodi:linespacing="125%"
       transform="scale(1,-1)"><tspan
         sodipodi:role="line"
         id="tspan4484"
         x="288.39859"
         y="-4.1745791">90°</tspan></text>
<text
       xml:space="preserve"
       style="font-style:normal;font-variant:normal;font-weight:normal;font-stretch:normal;font-size:8px;line-height:125%;font-family:Arial;-inkscape-font-specification:'Arial, Normal';text-align:start;letter-spacing:0px;word-spacing:0px;writing-mode:lr-tb;text-anchor:start;fill:#000000;fill-opacity:1;stroke:none;stroke-width:1px;stroke-linecap:butt;stroke-linejoin:miter;stroke-opacity:1"
       x="316.67371"
       y="-4.1745791"
       id="text4486"
       sodipodi:linespacing="125%"
       transform="scale(1,-1)"><tspan
         sodipodi:role="line"
         id="tspan4488"
         x="316.67371"
         y="-4.1745791">180°</tspan></text>
<text
       xml:space="preserve"
       style="font-style:normal;font-variant:normal;font-weight:normal;font-stretch:normal;font-size:8px;line-height:125%;font-family:Arial;-inkscape-font-specification:'Arial, Normal';text-align:start;letter-spacing:0px;word-spacing:0px;writing-mode:lr-tb;text-anchor:start;fill:#000000;fill-opacity:1;stroke:none;stroke-width:1px;stroke-linecap:butt;stroke-linejoin:miter;stroke-opacity:1"
       x="188.91071"
       y="-4.9655948"
       id="text4490"
       sodipodi:linespacing="125%"
       transform="scale(1,-1)"><tspan
         sodipodi:role="line"
         id="tspan4492"
         x="188.91071"
         y="-4.9655948">–</tspan></text>
<text
       transform="scale(1,-1)"
       sodipodi:linespacing="125%"
       id="text4494"
       y="-4.9655948"
       x="220.91083"
       style="font-style:normal;font-variant:normal;font-weight:normal;font-stretch:normal;font-size:8px;line-height:125%;font-family:Arial;-inkscape-font-specification:'Arial, Normal';text-align:start;letter-spacing:0px;word-spacing:0px;writing-mode:lr-tb;text-anchor:start;fill:#000000;fill-opacity:1;stroke:none;stroke-width:1px;stroke-linecap:butt;stroke-linejoin:miter;stroke-opacity:1"
       xml:space="preserve"><tspan
         y="-4.9655948"
         x="220.91083"
         id="tspan4496"
         sodipodi:role="line">–</tspan></text>
<text
       xml:space="preserve"
       style="font-style:normal;font-variant:normal;font-weight:normal;font-stretch:normal;font-size:8px;line-height:125%;font-family:Arial;-inkscape-font-specification:'Arial, Normal';text-align:start;letter-spacing:0px;word-spacing:0px;writing-mode:lr-tb;text-anchor:start;fill:#000000;fill-opacity:1;stroke:none;stroke-width:1px;stroke-linecap:butt;stroke-linejoin:miter;stroke-opacity:1"
       x="33.014725"
       y="-35.157528"
       id="text4498"
       sodipodi:linespacing="125%"
       transform="scale(1,-1)"><tspan
         sodipodi:role="line"
         id="tspan4500"
         x="33.014725"
         y="-35.157528">0.1</tspan></text>
<text
       xml:space="preserve"
       style="font-style:normal;font-variant:normal;font-weight:normal;font-stretch:normal;font-size:8px;line-height:125%;font-family:Arial;-inkscape-font-specification:'Arial, Normal';text-align:start;letter-spacing:0px;word-spacing:0px;writing-mode:lr-tb;text-anchor:start;fill:#000000;fill-opacity:1;stroke:none;stroke-width:1px;stroke-linecap:butt;stroke-linejoin:miter;stroke-opacity:1"
       x="31.967848"
       y="-58.370861"
       id="text4502"
       sodipodi:linespacing="125%"
       transform="scale(1,-1)"><tspan
         sodipodi:role="line"
         id="tspan4504"
         x="31.967848"
         y="-58.370861">0.2</tspan></text>
<text
       xml:space="preserve"
       style="font-style:normal;font-variant:normal;font-weight:normal;font-stretch:normal;font-size:8px;line-height:125%;font-family:Arial;-inkscape-font-specification:'Arial, Normal';text-align:start;letter-spacing:0px;word-spacing:0px;writing-mode:lr-tb;text-anchor:start;fill:#000000;fill-opacity:1;stroke:none;stroke-width:1px;stroke-linecap:butt;stroke-linejoin:miter;stroke-opacity:1"
       x="31.909254"
       y="-81.586151"
       id="text4506"
       sodipodi:linespacing="125%"
       transform="scale(1,-1)"><tspan
         sodipodi:role="line"
         id="tspan4508"
         x="31.909254"
         y="-81.586151">0.3</tspan></text>
<text
       xml:space="preserve"
       style="font-style:normal;font-variant:normal;font-weight:normal;font-stretch:normal;font-size:8px;line-height:125%;font-family:Arial;-inkscape-font-specification:'Arial, Normal';text-align:start;letter-spacing:0px;word-spacing:0px;writing-mode:lr-tb;text-anchor:start;fill:#000000;fill-opacity:1;stroke:none;stroke-width:1px;stroke-linecap:butt;stroke-linejoin:miter;stroke-opacity:1"
       x="31.932692"
       y="-104.79752"
       id="text4510"
       sodipodi:linespacing="125%"
       transform="scale(1,-1)"><tspan
         sodipodi:role="line"
         id="tspan4512"
         x="31.932692"
         y="-104.79752">0.4</tspan></text>
</g></svg>